<svg xmlns="http://www.w3.org/2000/svg" width="12" height="11" viewBox="0 0 12 11">
  <g id="answer" transform="translate(5.989 2.539)">
    <path id="Path_1571" data-name="Path 1571" d="M106.3,71.141h0s.26-.529.26-.529a4.658,4.658,0,0,0,1.8-3.312q0-.132-.008-.262c-.161-2.692-2.782-4.833-5.992-4.833s-5.825,2.136-5.992,4.823q-.008.135-.008.272c0,2.814,3.223,4.764,6,4.823a6.312,6.312,0,0,0,1.3-.12,6.585,6.585,0,0,0,2.983,1.2c.3.047.353-.429.353-.429Z" transform="translate(-102.343 -64.745)" fill="#1db854"/>
    <path id="Path_1572" data-name="Path 1572" d="M359.486,187.07l.335-1.2h1.731l.335,1.2a.352.352,0,0,0,.678-.189l-1.184-4.251a.721.721,0,0,0-1.389,0l-1.184,4.251A.352.352,0,0,0,359.486,187.07Zm1.184-4.251a.044.044,0,0,1,0-.01.032.032,0,0,1,.025,0,.032.032,0,0,1,0,.01l.653,2.344h-1.339Z" transform="translate(-360.574 -182.188)" fill="#f2fdff"/>
  </g>
</svg>
