<svg xmlns="http://www.w3.org/2000/svg" width="12" height="12" viewBox="0 0 12 12">
  <g id="Group_844" data-name="Group 844" transform="translate(-911.257 -317.992)">
    <g id="Path_1573" data-name="Path 1573" fill="none" stroke-miterlimit="10">
      <path d="M920.822,329.992h-6.808V322.9l2.269-4.582a.485.485,0,0,1,.5-.327,2.2,2.2,0,0,1,2.214,2.182v1.636h2.6a1.649,1.649,0,0,1,1.66,1.637v.272l-.775,4.91A1.616,1.616,0,0,1,920.822,329.992Z" stroke="none"/>
      <path d="M 920.822021484375 328.9920043945312 C 921.112060546875 328.9920043945312 921.445068359375 328.8367004394531 921.4909057617188 328.4957275390625 L 921.4942016601562 328.4730834960938 L 922.2570190429688 323.6405639648438 L 922.2570190429688 323.4469909667969 C 922.2570190429688 323.0957641601562 921.9609375 322.8099975585938 921.5969848632812 322.8099975585938 L 917.9949951171875 322.8099975585938 L 917.9949951171875 320.1740112304688 C 917.9949951171875 319.6126098632812 917.5908813476562 319.1413269042969 917.051025390625 319.021484375 L 915.0139770507812 323.1350402832031 L 915.0139770507812 328.9920043945312 L 920.822021484375 328.9920043945312 M 920.822021484375 329.9920043945312 L 914.0139770507812 329.9920043945312 L 914.0139770507812 322.9010009765625 L 916.2830200195312 318.3190002441406 C 916.3389892578125 318.1010131835938 916.5599975585938 317.9920043945312 916.781005859375 317.9920043945312 C 917.9990234375 317.9920043945312 918.9949951171875 318.9739990234375 918.9949951171875 320.1740112304688 L 918.9949951171875 321.8099975585938 L 921.5969848632812 321.8099975585938 C 922.5139770507812 321.8099975585938 923.2570190429688 322.5429992675781 923.2570190429688 323.4469909667969 L 923.2570190429688 323.718994140625 L 922.4819946289062 328.6289978027344 C 922.3720092773438 329.4469909667969 921.6519775390625 329.9920043945312 920.822021484375 329.9920043945312 Z" stroke="none" fill="#1db854"/>
    </g>
    <g id="Rectangle_521" data-name="Rectangle 521" transform="translate(911.257 322.899)" fill="none" stroke="#1db854" stroke-miterlimit="10" stroke-width="1">
      <path d="M1.5,0H3.746a0,0,0,0,1,0,0V7.093a0,0,0,0,1,0,0H1.5A1.5,1.5,0,0,1,0,5.593V1.5A1.5,1.5,0,0,1,1.5,0Z" stroke="none"/>
      <path d="M1.5.5H3.246a0,0,0,0,1,0,0V6.593a0,0,0,0,1,0,0H1.5a1,1,0,0,1-1-1V1.5A1,1,0,0,1,1.5.5Z" fill="none"/>
    </g>
  </g>
</svg>
