<svg xmlns="http://www.w3.org/2000/svg" width="12" height="11" viewBox="0 0 12 11">
  <g id="question" transform="translate(5.989 2.539)">
    <path id="Path_1571" data-name="Path 1571" d="M98.412,71.141h0s-.26-.529-.26-.529a4.658,4.658,0,0,1-1.8-3.312q0-.132.008-.262c.161-2.692,2.782-4.833,5.992-4.833s5.825,2.136,5.992,4.823q.008.135.008.272c0,2.814-3.223,4.764-6,4.823a6.312,6.312,0,0,1-1.3-.12,6.585,6.585,0,0,1-2.983,1.2c-.3.047-.353-.429-.353-.429Z" transform="translate(-102.343 -64.745)" fill="#fb931a"/>
    <path id="Path_1569" data-name="Path 1569" d="M179.073,183.721a1.622,1.622,0,1,0-3.243,0v2.173a1.645,1.645,0,0,0,1.622,1.664,1.588,1.588,0,0,0,1.014-.367l.253.259a.354.354,0,0,0,.51,0,.377.377,0,0,0,0-.524l-.311-.319a1.69,1.69,0,0,0,.157-.713Zm-1.006,2.017a.355.355,0,0,0-.511,0,.377.377,0,0,0,0,.524l.392.4a.878.878,0,0,1-.5.155.913.913,0,0,1-.9-.923v-2.173a.9.9,0,1,1,1.8,0v2.173a.941.941,0,0,1-.009.125Z" transform="translate(-177.479 -182.281)" fill="#f2fdff"/>
  </g>
</svg>
